<svg width="1368" height="429" viewBox="0 0 1368 429" fill="none" xmlns="http://www.w3.org/2000/svg">
<rect x="161.626" y="269.674" width="254.823" height="98.4313" rx="49.2156" transform="rotate(-90 161.626 269.674)" stroke="#C92455" stroke-width="29.6895"/>
<rect x="161.626" y="413.421" width="98.4313" height="98.4313" rx="49.2156" transform="rotate(-90 161.626 413.421)" stroke="#C92455" stroke-width="29.6895"/>
<rect x="113.28" y="158.591" width="254.823" height="98.4313" rx="49.2156" transform="rotate(90 113.28 158.591)" stroke="#C92455" stroke-width="29.6895"/>
<rect x="113.28" y="14.8447" width="98.4313" height="98.4313" rx="49.2156" transform="rotate(90 113.28 14.8447)" stroke="#C92455" stroke-width="29.6895"/>
<path d="M347.45 426.813C343.493 426.813 340.327 425.626 337.952 423.251C335.974 420.877 334.984 417.711 334.984 413.753V14.2469C334.984 9.89368 335.974 6.7277 337.952 4.74897C340.327 2.3745 343.493 1.18726 347.45 1.18726C351.408 1.18726 354.376 2.3745 356.355 4.74897C358.729 6.7277 359.916 9.89368 359.916 14.2469V199.456H361.104L574.213 10.0916C578.171 6.92557 581.732 4.74897 584.898 3.56174C588.064 1.97875 591.23 1.18726 594.396 1.18726C598.354 1.18726 601.322 1.97875 603.301 3.56174C605.279 5.14473 606.071 7.32134 605.675 10.0916C605.279 12.466 603.499 15.0384 600.333 17.8086L371.789 220.233L372.976 201.237L611.018 406.63C614.975 409.796 617.152 412.962 617.548 416.128C617.943 419.294 616.954 421.866 614.579 423.845C612.601 425.823 609.633 426.813 605.675 426.813C602.509 426.813 599.541 426.021 596.771 424.438C594.001 423.251 591.032 421.272 587.867 418.502L361.104 222.607H359.916V413.753C359.916 417.711 358.927 420.877 356.948 423.251C354.97 425.626 351.804 426.813 347.45 426.813Z" fill="#C92455"/>
<path d="M814.191 428C794.404 428 775.606 426.219 757.797 422.657C739.989 419.096 723.367 413.951 707.933 407.223C692.895 400.496 679.242 392.185 666.973 382.291C664.203 379.917 662.224 377.344 661.037 374.574C660.246 371.804 660.246 369.232 661.037 366.857C662.224 364.087 663.807 361.91 665.786 360.327C667.765 358.744 670.139 357.953 672.91 357.953C675.68 357.953 678.45 359.14 681.22 361.515C699.82 376.157 719.41 386.842 739.989 393.57C760.963 400.298 785.697 403.662 814.191 403.662C853.766 403.662 883.447 395.747 903.234 379.917C923.417 364.087 933.509 343.112 933.509 316.993C933.509 295.623 926.187 279.001 911.545 267.129C896.902 254.861 872.96 245.363 839.717 238.635L780.948 226.763C743.748 219.244 716.046 206.778 697.842 189.365C679.637 171.952 670.535 148.405 670.535 118.724C670.535 100.915 673.899 84.8877 680.627 70.6408C687.75 55.9982 697.644 43.5321 710.308 33.2427C722.972 22.5576 738.01 14.4448 755.423 8.90433C772.836 2.96811 792.029 0 813.004 0C839.123 0 863.066 3.95747 884.832 11.8724C906.598 19.3916 926.385 31.264 944.194 47.4896C946.964 49.8641 948.745 52.6343 949.537 55.8003C950.328 58.5705 950.13 61.3407 948.943 64.111C948.151 66.4854 946.766 68.4642 944.788 70.0472C943.205 71.2344 941.028 71.828 938.258 71.828C935.488 71.828 932.717 70.4429 929.947 67.6727C912.93 52.6343 894.924 41.7513 875.928 35.0236C856.932 27.9001 835.957 24.3384 813.004 24.3384C789.655 24.3384 769.274 28.2959 751.861 36.2108C734.448 43.73 720.795 54.6131 710.901 68.8599C701.403 83.1068 696.654 99.7282 696.654 118.724C696.654 141.677 703.382 159.882 716.837 173.337C730.293 186.397 752.059 195.895 782.136 201.831L840.904 213.703C881.27 222.014 911.149 234.282 930.541 250.508C949.932 266.337 959.628 288.301 959.628 316.399C959.628 333.021 956.264 348.257 949.537 362.108C942.809 375.564 933.113 387.238 920.449 397.132C908.181 407.025 892.945 414.743 874.74 420.283C856.932 425.428 836.749 428 814.191 428Z" fill="#C92455"/>
<path d="M1178.59 426.813C1174.24 426.813 1170.67 425.626 1167.9 423.251C1165.13 420.877 1162.76 417.513 1160.78 413.159L990.411 16.6214C989.224 13.0597 988.828 10.2894 989.224 8.31068C990.016 5.93621 991.401 4.15536 993.379 2.96813C995.754 1.78088 998.326 1.18726 1001.1 1.18726C1004.66 1.18726 1007.43 2.17663 1009.41 4.15536C1011.39 5.73835 1013.17 8.11283 1014.75 11.2788L1185.71 409.004H1172.06L1342.43 11.2788C1344.01 8.11283 1345.79 5.73835 1347.77 4.15536C1350.15 2.17663 1353.11 1.18726 1356.67 1.18726C1359.84 1.18726 1362.22 1.97875 1363.8 3.56174C1365.78 4.74897 1366.96 6.52983 1367.36 8.90433C1367.76 10.8831 1367.36 13.4554 1366.17 16.6214L1195.8 413.159C1194.22 417.513 1192.04 420.877 1189.27 423.251C1186.5 425.626 1182.94 426.813 1178.59 426.813Z" fill="#C92455"/>
</svg>
