<svg width="1837" height="540" viewBox="0 0 1837 540" fill="none" xmlns="http://www.w3.org/2000/svg">
<rect x="203.694" y="339.891" width="321.172" height="124.06" rx="62.0301" transform="rotate(-90 203.694 339.891)" stroke="#C92455" stroke-width="37.4199"/>
<rect x="203.694" y="521.065" width="124.06" height="124.06" rx="62.0301" transform="rotate(-90 203.694 521.065)" stroke="#C92455" stroke-width="37.4199"/>
<rect x="142.767" y="199.884" width="321.172" height="124.06" rx="62.0301" transform="rotate(90 142.767 199.884)" stroke="#C92455" stroke-width="37.4199"/>
<rect x="142.767" y="18.7099" width="124.06" height="124.06" rx="62.0301" transform="rotate(90 142.767 18.7099)" stroke="#C92455" stroke-width="37.4199"/>
<path d="M402 37.9667C402 17.9572 412.774 7.1829 432.784 7.1829H482.295C502.304 7.1829 513.078 17.9572 513.078 37.9667V238.831H520.005L694.447 25.1401C704.708 12.5701 715.995 7.1829 732.157 7.1829H793.211C819.634 7.1829 827.843 24.3706 810.912 44.8931L647.245 242.423L819.121 495.363C833.23 516.142 824.508 532.561 799.368 532.561H735.492C718.817 532.561 707.53 526.66 698.295 512.808L567.72 316.561L513.078 383.259V501.777C513.078 521.786 502.304 532.561 482.295 532.561H432.784C412.774 532.561 402 521.786 402 501.777V37.9667Z" fill="#C92455"/>
<path d="M1207.77 158.28C1189.55 158.28 1181.86 149.302 1173.65 132.627C1160.57 107.23 1131.83 92.8646 1091.05 92.8646C1036.66 92.8646 1006.65 117.748 1006.65 151.61C1005.88 189.321 1044.1 206.252 1089.76 216.77L1136.96 228.057C1228.29 248.58 1294.22 295.012 1294.47 382.489C1294.22 478.689 1218.8 540 1090.53 540C975.606 540 898.39 492.285 881.971 399.933C878.38 379.411 890.694 367.61 911.216 367.61H958.675C977.145 367.61 985.354 376.846 992.28 394.546C1006.13 429.178 1042.3 446.879 1089.25 446.879C1145.69 446.879 1182.11 420.713 1182.37 382.233C1182.11 346.831 1150.3 330.413 1093.1 316.561L1035.89 302.195C947.131 280.903 892.489 236.523 892.746 159.05C892.233 63.6199 976.632 0 1091.81 0C1194.68 0 1266.77 50.0238 1283.44 125.957C1288.06 146.48 1275.49 158.28 1254.71 158.28H1207.77Z" fill="#C92455"/>
<path d="M1591.09 406.347H1595.96L1715 32.5796C1720.38 15.3919 1731.93 7.1829 1749.88 7.1829H1809.14C1831.72 7.1829 1841.72 20.7791 1834.28 42.3278L1673.95 507.677C1668.05 524.865 1656.76 532.561 1638.81 532.561H1548.51C1530.55 532.561 1519.26 524.865 1513.36 507.677L1352.77 42.3278C1345.33 20.7791 1355.34 7.1829 1377.91 7.1829H1437.43C1455.38 7.1829 1466.93 15.3919 1472.32 32.5796L1591.09 406.347Z" fill="#C92455"/>
</svg>
